<?xml version="1.0" encoding="UTF-8"?>
<svg xmlns="http://www.w3.org/2000/svg" xmlns:xlink="http://www.w3.org/1999/xlink" width="3000" height="2000" viewBox="0 0 3000 2000">
<defs>
<clipPath id="clip-0">
<path clip-rule="nonzero" d="M 451 696 L 2549 696 L 2549 1304 L 451 1304 Z M 451 696 "/>
</clipPath>
<clipPath id="clip-1">
<path clip-rule="nonzero" d="M 2245.851562 1303.148438 L 754.152344 1303.148438 C 586.726562 1303.148438 451 1167.429688 451 1000 C 451 832.570312 586.726562 696.851562 754.152344 696.851562 L 2245.851562 696.851562 C 2413.269531 696.851562 2549 832.570312 2549 1000 C 2549 1167.429688 2413.269531 1303.148438 2245.851562 1303.148438 Z M 2245.851562 1303.148438 "/>
</clipPath>
<clipPath id="clip-2">
<path clip-rule="nonzero" d="M 2245.851562 1303.148438 L 754.152344 1303.148438 C 586.726562 1303.148438 451 1167.429688 451 1000 C 451 832.570312 586.726562 696.851562 754.152344 696.851562 L 2245.851562 696.851562 C 2413.269531 696.851562 2549 832.570312 2549 1000 C 2549 1167.429688 2413.269531 1303.148438 2245.851562 1303.148438 "/>
</clipPath>
<linearGradient id="linear-pattern-0" gradientUnits="userSpaceOnUse" x1="0.067062" y1="0" x2="1.03862" y2="0" gradientTransform="matrix(0, -624.049, 624.049, 0, 1500, 1345)">
<stop offset="0" stop-color="rgb(23.580933%, 30.050659%, 65.974426%)" stop-opacity="1"/>
<stop offset="0.015625" stop-color="rgb(23.675537%, 30.143738%, 66.044617%)" stop-opacity="1"/>
<stop offset="0.03125" stop-color="rgb(23.744202%, 30.33905%, 66.184998%)" stop-opacity="1"/>
<stop offset="0.046875" stop-color="rgb(23.703003%, 30.545044%, 66.325378%)" stop-opacity="1"/>
<stop offset="0.0625" stop-color="rgb(23.806763%, 30.738831%, 66.465759%)" stop-opacity="1"/>
<stop offset="0.078125" stop-color="rgb(23.893738%, 30.935669%, 66.60614%)" stop-opacity="1"/>
<stop offset="0.09375" stop-color="rgb(23.838806%, 31.143188%, 66.748047%)" stop-opacity="1"/>
<stop offset="0.109375" stop-color="rgb(23.783875%, 31.349182%, 66.888428%)" stop-opacity="1"/>
<stop offset="0.125" stop-color="rgb(23.728943%, 31.556702%, 67.028809%)" stop-opacity="1"/>
<stop offset="0.140625" stop-color="rgb(23.829651%, 31.665039%, 67.10968%)" stop-opacity="1"/>
<stop offset="0.15625" stop-color="rgb(23.963928%, 31.75354%, 67.176819%)" stop-opacity="1"/>
<stop offset="0.171875" stop-color="rgb(24.081421%, 31.854248%, 67.250061%)" stop-opacity="1"/>
<stop offset="0.1875" stop-color="rgb(24.325562%, 31.936646%, 67.3172%)" stop-opacity="1"/>
<stop offset="0.203125" stop-color="rgb(24.481201%, 32.106018%, 67.440796%)" stop-opacity="1"/>
<stop offset="0.21875" stop-color="rgb(24.572754%, 32.305908%, 67.582703%)" stop-opacity="1"/>
<stop offset="0.25" stop-color="rgb(24.765015%, 32.498169%, 67.720032%)" stop-opacity="1"/>
<stop offset="0.265625" stop-color="rgb(25.02594%, 32.633972%, 67.823792%)" stop-opacity="1"/>
<stop offset="0.28125" stop-color="rgb(25.306702%, 32.719421%, 67.892456%)" stop-opacity="1"/>
<stop offset="0.296875" stop-color="rgb(25.512695%, 32.861328%, 67.996216%)" stop-opacity="1"/>
<stop offset="0.3125" stop-color="rgb(25.549316%, 33.070374%, 68.138123%)" stop-opacity="1"/>
<stop offset="0.328125" stop-color="rgb(25.547791%, 33.279419%, 68.280029%)" stop-opacity="1"/>
<stop offset="0.34375" stop-color="rgb(25.656128%, 33.485413%, 68.421936%)" stop-opacity="1"/>
<stop offset="0.359375" stop-color="rgb(25.756836%, 33.668518%, 68.548584%)" stop-opacity="1"/>
<stop offset="0.375" stop-color="rgb(25.894165%, 33.763123%, 68.617249%)" stop-opacity="1"/>
<stop offset="0.382812" stop-color="rgb(26.000977%, 33.831787%, 68.666077%)" stop-opacity="1"/>
<stop offset="0.390625" stop-color="rgb(25.971985%, 33.953857%, 68.746948%)" stop-opacity="1"/>
<stop offset="0.398438" stop-color="rgb(25.92926%, 34.129333%, 68.864441%)" stop-opacity="1"/>
<stop offset="0.40625" stop-color="rgb(25.895691%, 34.332275%, 68.998718%)" stop-opacity="1"/>
<stop offset="0.4375" stop-color="rgb(26.008606%, 34.527588%, 69.132996%)" stop-opacity="1"/>
<stop offset="0.453125" stop-color="rgb(26.106262%, 34.732056%, 69.271851%)" stop-opacity="1"/>
<stop offset="0.46875" stop-color="rgb(26.203918%, 34.944153%, 69.415283%)" stop-opacity="1"/>
<stop offset="0.484375" stop-color="rgb(26.457214%, 35.150146%, 69.558716%)" stop-opacity="1"/>
<stop offset="0.5" stop-color="rgb(26.582336%, 35.362244%, 69.703674%)" stop-opacity="1"/>
<stop offset="0.515625" stop-color="rgb(26.681519%, 35.575867%, 69.847107%)" stop-opacity="1"/>
<stop offset="0.53125" stop-color="rgb(26.794434%, 35.791016%, 69.99054%)" stop-opacity="1"/>
<stop offset="0.546875" stop-color="rgb(26.89209%, 36.004639%, 70.133972%)" stop-opacity="1"/>
<stop offset="0.5625" stop-color="rgb(27.005005%, 36.219788%, 70.278931%)" stop-opacity="1"/>
<stop offset="0.578125" stop-color="rgb(27.105713%, 36.436462%, 70.422363%)" stop-opacity="1"/>
<stop offset="0.59375" stop-color="rgb(27.233887%, 36.58905%, 70.524597%)" stop-opacity="1"/>
<stop offset="0.609375" stop-color="rgb(27.360535%, 36.691284%, 70.593262%)" stop-opacity="1"/>
<stop offset="0.625" stop-color="rgb(27.487183%, 36.859131%, 70.706177%)" stop-opacity="1"/>
<stop offset="0.640625" stop-color="rgb(27.587891%, 37.078857%, 70.851135%)" stop-opacity="1"/>
<stop offset="0.65625" stop-color="rgb(27.703857%, 37.298584%, 70.996094%)" stop-opacity="1"/>
<stop offset="0.671875" stop-color="rgb(27.804565%, 37.518311%, 71.139526%)" stop-opacity="1"/>
<stop offset="0.6875" stop-color="rgb(27.920532%, 37.739563%, 71.286011%)" stop-opacity="1"/>
<stop offset="0.703125" stop-color="rgb(27.980042%, 37.95929%, 71.429443%)" stop-opacity="1"/>
<stop offset="0.71875" stop-color="rgb(27.966309%, 38.182068%, 71.572876%)" stop-opacity="1"/>
<stop offset="0.734375" stop-color="rgb(28.112793%, 38.404846%, 71.71936%)" stop-opacity="1"/>
<stop offset="0.75" stop-color="rgb(28.359985%, 38.62915%, 71.865845%)" stop-opacity="1"/>
<stop offset="0.765625" stop-color="rgb(28.463745%, 38.85498%, 72.012329%)" stop-opacity="1"/>
<stop offset="0.78125" stop-color="rgb(28.588867%, 39.079285%, 72.157288%)" stop-opacity="1"/>
<stop offset="0.796875" stop-color="rgb(28.860474%, 39.308167%, 72.305298%)" stop-opacity="1"/>
<stop offset="0.8125" stop-color="rgb(28.971863%, 39.535522%, 72.451782%)" stop-opacity="1"/>
<stop offset="0.828125" stop-color="rgb(29.077148%, 39.762878%, 72.596741%)" stop-opacity="1"/>
<stop offset="0.84375" stop-color="rgb(29.197693%, 39.99176%, 72.743225%)" stop-opacity="1"/>
<stop offset="0.859375" stop-color="rgb(29.302979%, 40.220642%, 72.889709%)" stop-opacity="1"/>
<stop offset="0.875" stop-color="rgb(29.425049%, 40.45105%, 73.036194%)" stop-opacity="1"/>
<stop offset="0.890625" stop-color="rgb(29.530334%, 40.681458%, 73.182678%)" stop-opacity="1"/>
<stop offset="0.90625" stop-color="rgb(29.769897%, 40.916443%, 73.330688%)" stop-opacity="1"/>
<stop offset="0.921875" stop-color="rgb(29.934692%, 41.151428%, 73.478699%)" stop-opacity="1"/>
<stop offset="0.9375" stop-color="rgb(30.04303%, 41.383362%, 73.625183%)" stop-opacity="1"/>
<stop offset="0.945313" stop-color="rgb(30.189514%, 41.572571%, 73.744202%)" stop-opacity="1"/>
<stop offset="0.953125" stop-color="rgb(30.314636%, 41.758728%, 73.861694%)" stop-opacity="1"/>
<stop offset="0.96875" stop-color="rgb(30.426025%, 41.984558%, 74.002075%)" stop-opacity="1"/>
<stop offset="1" stop-color="rgb(30.477905%, 42.09137%, 74.069214%)" stop-opacity="1"/>
</linearGradient>
<clipPath id="clip-3">
<path clip-rule="nonzero" d="M 478 723 L 2522 723 L 2522 1277 L 478 1277 Z M 478 723 "/>
</clipPath>
<clipPath id="clip-4">
<path clip-rule="nonzero" d="M 2245.160156 1276.339844 L 754.839844 1276.339844 C 602.21875 1276.339844 478.496094 1152.621094 478.496094 1000 C 478.496094 847.378906 602.21875 723.660156 754.839844 723.660156 L 2245.160156 723.660156 C 2397.78125 723.660156 2521.5 847.378906 2521.5 1000 C 2521.5 1152.621094 2397.78125 1276.339844 2245.160156 1276.339844 Z M 2245.160156 1276.339844 "/>
</clipPath>
<clipPath id="clip-5">
<path clip-rule="nonzero" d="M 2245.160156 1276.339844 L 754.839844 1276.339844 C 602.21875 1276.339844 478.496094 1152.621094 478.496094 1000 C 478.496094 847.378906 602.21875 723.660156 754.839844 723.660156 L 2245.160156 723.660156 C 2397.78125 723.660156 2521.5 847.378906 2521.5 1000 C 2521.5 1152.621094 2397.78125 1276.339844 2245.160156 1276.339844 "/>
</clipPath>
<linearGradient id="linear-pattern-1" gradientUnits="userSpaceOnUse" x1="0.00662974" y1="0" x2="1.007756" y2="0" gradientTransform="matrix(0, 552.058, -552.058, 0, 1500, 720)">
<stop offset="0" stop-color="rgb(23.301697%, 29.695129%, 65.708923%)" stop-opacity="1"/>
<stop offset="0.015625" stop-color="rgb(23.347473%, 29.753113%, 65.751648%)" stop-opacity="1"/>
<stop offset="0.03125" stop-color="rgb(23.477173%, 29.84314%, 65.823364%)" stop-opacity="1"/>
<stop offset="0.0625" stop-color="rgb(23.588562%, 29.975891%, 65.922546%)" stop-opacity="1"/>
<stop offset="0.078125" stop-color="rgb(23.68927%, 30.172729%, 66.065979%)" stop-opacity="1"/>
<stop offset="0.09375" stop-color="rgb(23.733521%, 30.377197%, 66.210938%)" stop-opacity="1"/>
<stop offset="0.109375" stop-color="rgb(23.725891%, 30.586243%, 66.355896%)" stop-opacity="1"/>
<stop offset="0.125" stop-color="rgb(23.826599%, 30.787659%, 66.500854%)" stop-opacity="1"/>
<stop offset="0.140625" stop-color="rgb(23.878479%, 30.992126%, 66.645813%)" stop-opacity="1"/>
<stop offset="0.15625" stop-color="rgb(23.822021%, 31.207275%, 66.790771%)" stop-opacity="1"/>
<stop offset="0.171875" stop-color="rgb(23.765564%, 31.420898%, 66.937256%)" stop-opacity="1"/>
<stop offset="0.1875" stop-color="rgb(23.753357%, 31.60553%, 67.063904%)" stop-opacity="1"/>
<stop offset="0.203125" stop-color="rgb(23.886108%, 31.700134%, 67.13562%)" stop-opacity="1"/>
<stop offset="0.21875" stop-color="rgb(24.012756%, 31.797791%, 67.208862%)" stop-opacity="1"/>
<stop offset="0.234375" stop-color="rgb(24.176025%, 31.892395%, 67.280579%)" stop-opacity="1"/>
<stop offset="0.25" stop-color="rgb(24.427795%, 32.003784%, 67.36908%)" stop-opacity="1"/>
<stop offset="0.265625" stop-color="rgb(24.526978%, 32.209778%, 67.514038%)" stop-opacity="1"/>
<stop offset="0.28125" stop-color="rgb(24.636841%, 32.400513%, 67.648315%)" stop-opacity="1"/>
<stop offset="0.296875" stop-color="rgb(24.765015%, 32.498169%, 67.720032%)" stop-opacity="1"/>
<stop offset="0.3125" stop-color="rgb(24.917603%, 32.598877%, 67.7948%)" stop-opacity="1"/>
<stop offset="0.328125" stop-color="rgb(25.205994%, 32.688904%, 67.868042%)" stop-opacity="1"/>
<stop offset="0.34375" stop-color="rgb(25.4776%, 32.795715%, 67.948914%)" stop-opacity="1"/>
<stop offset="0.359375" stop-color="rgb(25.566101%, 33.006287%, 68.095398%)" stop-opacity="1"/>
<stop offset="0.375" stop-color="rgb(25.523376%, 33.224487%, 68.241882%)" stop-opacity="1"/>
<stop offset="0.390625" stop-color="rgb(25.628662%, 33.43811%, 68.388367%)" stop-opacity="1"/>
<stop offset="0.40625" stop-color="rgb(25.732422%, 33.64563%, 68.533325%)" stop-opacity="1"/>
<stop offset="0.421875" stop-color="rgb(25.868225%, 33.747864%, 68.605042%)" stop-opacity="1"/>
<stop offset="0.429688" stop-color="rgb(26.010132%, 33.799744%, 68.644714%)" stop-opacity="1"/>
<stop offset="0.4375" stop-color="rgb(25.982666%, 33.911133%, 68.717957%)" stop-opacity="1"/>
<stop offset="0.445312" stop-color="rgb(25.941467%, 34.078979%, 68.829346%)" stop-opacity="1"/>
<stop offset="0.453125" stop-color="rgb(25.888062%, 34.298706%, 68.97583%)" stop-opacity="1"/>
<stop offset="0.46875" stop-color="rgb(25.993347%, 34.513855%, 69.12384%)" stop-opacity="1"/>
<stop offset="0.5" stop-color="rgb(26.104736%, 34.729004%, 69.270325%)" stop-opacity="1"/>
<stop offset="0.515625" stop-color="rgb(26.20697%, 34.945679%, 69.416809%)" stop-opacity="1"/>
<stop offset="0.53125" stop-color="rgb(26.46637%, 35.159302%, 69.564819%)" stop-opacity="1"/>
<stop offset="0.546875" stop-color="rgb(26.586914%, 35.377502%, 69.71283%)" stop-opacity="1"/>
<stop offset="0.5625" stop-color="rgb(26.693726%, 35.598755%, 69.86084%)" stop-opacity="1"/>
<stop offset="0.578125" stop-color="rgb(26.805115%, 35.818481%, 70.00885%)" stop-opacity="1"/>
<stop offset="0.59375" stop-color="rgb(26.911926%, 36.039734%, 70.15686%)" stop-opacity="1"/>
<stop offset="0.609375" stop-color="rgb(27.023315%, 36.260986%, 70.306396%)" stop-opacity="1"/>
<stop offset="0.625" stop-color="rgb(27.131653%, 36.485291%, 70.454407%)" stop-opacity="1"/>
<stop offset="0.65625" stop-color="rgb(27.377319%, 36.705017%, 70.603943%)" stop-opacity="1"/>
<stop offset="0.671875" stop-color="rgb(27.5177%, 36.929321%, 70.751953%)" stop-opacity="1"/>
<stop offset="0.6875" stop-color="rgb(27.626038%, 37.153625%, 70.899963%)" stop-opacity="1"/>
<stop offset="0.703125" stop-color="rgb(27.742004%, 37.380981%, 71.0495%)" stop-opacity="1"/>
<stop offset="0.71875" stop-color="rgb(27.850342%, 37.606812%, 71.199036%)" stop-opacity="1"/>
<stop offset="0.734375" stop-color="rgb(27.964783%, 37.835693%, 71.348572%)" stop-opacity="1"/>
<stop offset="0.75" stop-color="rgb(27.957153%, 38.063049%, 71.496582%)" stop-opacity="1"/>
<stop offset="0.765625" stop-color="rgb(28.024292%, 38.291931%, 71.644592%)" stop-opacity="1"/>
<stop offset="0.78125" stop-color="rgb(28.2547%, 38.522339%, 71.795654%)" stop-opacity="1"/>
<stop offset="0.796875" stop-color="rgb(28.419495%, 38.754272%, 71.946716%)" stop-opacity="1"/>
<stop offset="0.8125" stop-color="rgb(28.530884%, 38.986206%, 72.096252%)" stop-opacity="1"/>
<stop offset="0.828125" stop-color="rgb(28.756714%, 39.221191%, 72.24884%)" stop-opacity="1"/>
<stop offset="0.84375" stop-color="rgb(28.930664%, 39.456177%, 72.399902%)" stop-opacity="1"/>
<stop offset="0.859375" stop-color="rgb(29.043579%, 39.689636%, 72.550964%)" stop-opacity="1"/>
<stop offset="0.875" stop-color="rgb(29.162598%, 39.924622%, 72.7005%)" stop-opacity="1"/>
<stop offset="0.890625" stop-color="rgb(29.277039%, 40.161133%, 72.851562%)" stop-opacity="1"/>
<stop offset="0.90625" stop-color="rgb(29.394531%, 40.397644%, 73.002625%)" stop-opacity="1"/>
<stop offset="0.921875" stop-color="rgb(29.510498%, 40.635681%, 73.153687%)" stop-opacity="1"/>
<stop offset="0.9375" stop-color="rgb(29.722595%, 40.87677%, 73.306274%)" stop-opacity="1"/>
<stop offset="0.953125" stop-color="rgb(29.916382%, 41.117859%, 73.458862%)" stop-opacity="1"/>
<stop offset="0.96875" stop-color="rgb(30.032349%, 41.358948%, 73.609924%)" stop-opacity="1"/>
<stop offset="0.976562" stop-color="rgb(30.166626%, 41.542053%, 73.724365%)" stop-opacity="1"/>
<stop offset="0.984375" stop-color="rgb(30.297852%, 41.726685%, 73.840332%)" stop-opacity="1"/>
<stop offset="1" stop-color="rgb(30.41687%, 41.969299%, 73.99292%)" stop-opacity="1"/>
</linearGradient>
</defs>
<rect x="-300" y="-200" width="3600" height="2400" fill="rgb(98.674011%, 99.14856%, 99.720764%)" fill-opacity="1"/>
<g clip-path="url(#clip-0)">
<g clip-path="url(#clip-1)">
<g clip-path="url(#clip-2)">
<path fill-rule="nonzero" fill="url(#linear-pattern-0)" d="M 451 1303.148438 L 2549 1303.148438 L 2549 696.851562 L 451 696.851562 Z M 451 1303.148438 "/>
</g>
</g>
</g>
<g clip-path="url(#clip-3)">
<g clip-path="url(#clip-4)">
<g clip-path="url(#clip-5)">
<path fill-rule="nonzero" fill="url(#linear-pattern-1)" d="M 2521.5 723.660156 L 478.496094 723.660156 L 478.496094 1276.339844 L 2521.5 1276.339844 Z M 2521.5 723.660156 "/>
</g>
</g>
</g>
<path fill-rule="nonzero" fill="rgb(100%, 100%, 100%)" fill-opacity="1" d="M 993.164062 995.328125 C 999.058594 990.261719 1002.011719 982.109375 1002.011719 970.890625 C 1002.011719 959.679688 998.976562 951.980469 992.917969 947.808594 C 986.859375 943.628906 976.050781 941.539062 960.496094 941.539062 L 923.652344 941.539062 L 923.652344 1002.949219 L 959.761719 1002.949219 C 976.132812 1002.949219 987.269531 1000.410156 993.164062 995.328125 Z M 1031.730469 971.019531 C 1031.730469 999.351562 1019.359375 1017.191406 994.636719 1024.558594 L 1039.589844 1086.949219 L 1002.738281 1086.949219 L 961.726562 1029.230469 L 923.652344 1029.230469 L 923.652344 1086.949219 L 894.667969 1086.949219 L 894.667969 915.261719 L 958.53125 915.261719 C 984.730469 915.261719 1003.480469 919.679688 1014.78125 928.519531 C 1026.078125 937.371094 1031.730469 951.53125 1031.730469 971.019531 "/>
<path fill="none" stroke-width="90" stroke-linecap="butt" stroke-linejoin="miter" stroke="rgb(100%, 100%, 100%)" stroke-opacity="1" stroke-miterlimit="10" d="M 9931.640625 10046.71875 C 9990.585938 10097.382812 10020.117188 10178.90625 10020.117188 10291.09375 C 10020.117188 10403.203125 9989.765625 10480.195312 9929.179688 10521.914062 C 9868.59375 10563.710938 9760.507812 10584.609375 9604.960938 10584.609375 L 9236.523438 10584.609375 L 9236.523438 9970.507812 L 9597.617188 9970.507812 C 9761.328125 9970.507812 9872.695312 9995.898438 9931.640625 10046.71875 Z M 10317.304688 10289.804688 C 10317.304688 10006.484375 10193.59375 9828.085938 9946.367188 9754.414062 L 10395.898438 9130.507812 L 10027.382812 9130.507812 L 9617.265625 9707.695312 L 9236.523438 9707.695312 L 9236.523438 9130.507812 L 8946.679688 9130.507812 L 8946.679688 10847.382812 L 9585.3125 10847.382812 C 9847.304688 10847.382812 10034.804688 10803.203125 10147.8125 10714.804688 C 10260.78125 10626.289062 10317.304688 10484.6875 10317.304688 10289.804688 Z M 10317.304688 10289.804688 " transform="matrix(0.1, 0, 0, -0.1, 0, 2000)"/>
<path fill-rule="nonzero" fill="rgb(100%, 100%, 100%)" fill-opacity="1" d="M 1194.078125 915.261719 L 1194.078125 942.519531 L 1102.46875 942.519531 L 1102.46875 987.960938 L 1184.75 987.960938 L 1184.75 1013.75 L 1102.46875 1013.75 L 1102.46875 1059.691406 L 1197.03125 1059.691406 L 1197.03125 1086.949219 L 1073.480469 1086.949219 L 1073.480469 915.261719 L 1194.078125 915.261719 "/>
<path fill="none" stroke-width="90" stroke-linecap="butt" stroke-linejoin="miter" stroke="rgb(100%, 100%, 100%)" stroke-opacity="1" stroke-miterlimit="10" d="M 11940.78125 10847.382812 L 11940.78125 10574.804688 L 11024.6875 10574.804688 L 11024.6875 10120.390625 L 11847.5 10120.390625 L 11847.5 9862.5 L 11024.6875 9862.5 L 11024.6875 9403.085938 L 11970.3125 9403.085938 L 11970.3125 9130.507812 L 10734.804688 9130.507812 L 10734.804688 10847.382812 Z M 11940.78125 10847.382812 " transform="matrix(0.1, 0, 0, -0.1, 0, 2000)"/>
<path fill-rule="nonzero" fill="rgb(100%, 100%, 100%)" fill-opacity="1" d="M 1353 1003.441406 L 1381.980469 1003.441406 L 1381.980469 1062.140625 C 1365.769531 1079.988281 1342.601562 1088.921875 1312.46875 1088.921875 C 1287.089844 1088.921875 1265.839844 1080.558594 1248.730469 1063.859375 C 1231.621094 1047.160156 1223.058594 1026.039062 1223.058594 1000.488281 C 1223.058594 974.949219 1231.78125 953.660156 1249.21875 936.628906 C 1266.660156 919.601562 1287.738281 911.089844 1312.46875 911.089844 C 1337.191406 911.089844 1357.75 918.289062 1374.121094 932.699219 L 1358.648438 954.808594 C 1351.929688 949.070312 1345.179688 945.101562 1338.378906 942.890625 C 1331.589844 940.679688 1323.691406 939.578125 1314.679688 939.578125 C 1297.320312 939.578125 1282.75 945.191406 1270.960938 956.398438 C 1259.171875 967.621094 1253.28125 982.359375 1253.28125 1000.609375 C 1253.28125 1018.871094 1259.011719 1033.53125 1270.46875 1044.578125 C 1281.929688 1055.628906 1295.808594 1061.160156 1312.101562 1061.160156 C 1328.390625 1061.160156 1342.03125 1057.640625 1353 1050.601562 L 1353 1003.441406 "/>
<path fill="none" stroke-width="90" stroke-linecap="butt" stroke-linejoin="miter" stroke="rgb(100%, 100%, 100%)" stroke-opacity="1" stroke-miterlimit="10" d="M 13530 9965.585938 L 13819.804688 9965.585938 L 13819.804688 9378.59375 C 13657.695312 9200.117188 13426.015625 9110.78125 13124.6875 9110.78125 C 12870.898438 9110.78125 12658.398438 9194.414062 12487.304688 9361.40625 C 12316.210938 9528.398438 12230.585938 9739.609375 12230.585938 9995.117188 C 12230.585938 10250.507812 12317.8125 10463.398438 12492.1875 10633.710938 C 12666.601562 10803.984375 12877.382812 10889.101562 13124.6875 10889.101562 C 13371.914062 10889.101562 13577.5 10817.109375 13741.210938 10673.007812 L 13586.484375 10451.914062 C 13519.296875 10509.296875 13451.796875 10548.984375 13383.789062 10571.09375 C 13315.898438 10593.203125 13236.914062 10604.21875 13146.796875 10604.21875 C 12973.203125 10604.21875 12827.5 10548.085938 12709.609375 10436.015625 C 12591.71875 10323.789062 12532.8125 10176.40625 12532.8125 9993.90625 C 12532.8125 9811.289062 12590.117188 9664.6875 12704.6875 9554.21875 C 12819.296875 9443.710938 12958.085938 9388.398438 13121.015625 9388.398438 C 13283.90625 9388.398438 13420.3125 9423.59375 13530 9493.984375 Z M 13530 9965.585938 " transform="matrix(0.1, 0, 0, -0.1, 0, 2000)"/>
<path fill-rule="nonzero" fill="rgb(100%, 100%, 100%)" fill-opacity="1" d="M 1420.050781 915.261719 L 1449.03125 915.261719 L 1449.03125 1086.949219 L 1420.050781 1086.949219 L 1420.050781 915.261719 "/>
<path fill="none" stroke-width="90" stroke-linecap="butt" stroke-linejoin="miter" stroke="rgb(100%, 100%, 100%)" stroke-opacity="1" stroke-miterlimit="10" d="M 14200.507812 10847.382812 L 14490.3125 10847.382812 L 14490.3125 9130.507812 L 14200.507812 9130.507812 Z M 14200.507812 10847.382812 " transform="matrix(0.1, 0, 0, -0.1, 0, 2000)"/>
<path fill-rule="nonzero" fill="rgb(100%, 100%, 100%)" fill-opacity="1" d="M 1548.628906 937.859375 C 1540.199219 937.859375 1533.28125 939.578125 1527.878906 943.019531 C 1522.46875 946.449219 1519.769531 951.648438 1519.769531 958.609375 C 1519.769531 965.570312 1522.46875 970.890625 1527.878906 974.578125 C 1533.28125 978.261719 1544.78125 982.230469 1562.390625 986.488281 C 1579.988281 990.75 1593.25 996.730469 1602.179688 1004.421875 C 1611.101562 1012.121094 1615.570312 1023.460938 1615.570312 1038.441406 C 1615.570312 1053.421875 1609.921875 1065.578125 1598.621094 1074.921875 C 1587.320312 1084.25 1572.5 1088.921875 1554.160156 1088.921875 C 1527.300781 1088.921875 1503.480469 1079.671875 1482.679688 1061.160156 L 1500.859375 1039.300781 C 1518.210938 1054.371094 1536.230469 1061.898438 1554.898438 1061.898438 C 1564.230469 1061.898438 1571.640625 1059.890625 1577.128906 1055.878906 C 1582.609375 1051.871094 1585.351562 1046.539062 1585.351562 1039.910156 C 1585.351562 1033.28125 1582.78125 1028.121094 1577.621094 1024.441406 C 1572.460938 1020.75 1563.570312 1017.398438 1550.96875 1014.371094 C 1538.359375 1011.339844 1528.78125 1008.558594 1522.230469 1006.019531 C 1515.679688 1003.480469 1509.859375 1000.171875 1504.789062 996.070312 C 1494.628906 988.371094 1489.558594 976.589844 1489.558594 960.699219 C 1489.558594 944.820312 1495.328125 932.578125 1506.878906 923.980469 C 1518.421875 915.378906 1532.710938 911.089844 1549.738281 911.089844 C 1560.710938 911.089844 1571.601562 912.890625 1582.410156 916.488281 C 1593.210938 920.089844 1602.550781 925.171875 1610.410156 931.71875 L 1594.929688 953.578125 C 1589.859375 948.988281 1582.980469 945.230469 1574.300781 942.28125 C 1565.621094 939.328125 1557.070312 937.859375 1548.628906 937.859375 "/>
<path fill="none" stroke-width="90" stroke-linecap="butt" stroke-linejoin="miter" stroke="rgb(100%, 100%, 100%)" stroke-opacity="1" stroke-miterlimit="10" d="M 15486.289062 10621.40625 C 15401.992188 10621.40625 15332.8125 10604.21875 15278.789062 10569.804688 C 15224.6875 10535.507812 15197.695312 10483.515625 15197.695312 10413.90625 C 15197.695312 10344.296875 15224.6875 10291.09375 15278.789062 10254.21875 C 15332.8125 10217.382812 15447.8125 10177.695312 15623.90625 10135.117188 C 15799.882812 10092.5 15932.5 10032.695312 16021.796875 9955.78125 C 16111.015625 9878.789062 16155.703125 9765.390625 16155.703125 9615.585938 C 16155.703125 9465.78125 16099.21875 9344.21875 15986.210938 9250.78125 C 15873.203125 9157.5 15725 9110.78125 15541.601562 9110.78125 C 15273.007812 9110.78125 15034.804688 9203.28125 14826.796875 9388.398438 L 15008.59375 9606.992188 C 15182.109375 9456.289062 15362.304688 9381.015625 15548.984375 9381.015625 C 15642.304688 9381.015625 15716.40625 9401.09375 15771.289062 9441.210938 C 15826.09375 9481.289062 15853.515625 9534.609375 15853.515625 9600.898438 C 15853.515625 9667.1875 15827.8125 9718.789062 15776.210938 9755.585938 C 15724.609375 9792.5 15635.703125 9826.015625 15509.6875 9856.289062 C 15383.59375 9886.601562 15287.8125 9914.414062 15222.304688 9939.804688 C 15156.796875 9965.195312 15098.59375 9998.28125 15047.890625 10039.296875 C 14946.289062 10116.289062 14895.585938 10234.101562 14895.585938 10393.007812 C 14895.585938 10551.796875 14953.28125 10674.21875 15068.789062 10760.195312 C 15184.21875 10846.210938 15327.109375 10889.101562 15497.382812 10889.101562 C 15607.109375 10889.101562 15716.015625 10871.09375 15824.101562 10835.117188 C 15932.109375 10799.101562 16025.507812 10748.28125 16104.101562 10682.8125 L 15949.296875 10464.21875 C 15898.59375 10510.117188 15829.804688 10547.695312 15743.007812 10577.1875 C 15656.210938 10606.71875 15570.703125 10621.40625 15486.289062 10621.40625 Z M 15486.289062 10621.40625 " transform="matrix(0.1, 0, 0, -0.1, 0, 2000)"/>
<path fill-rule="nonzero" fill="rgb(100%, 100%, 100%)" fill-opacity="1" d="M 1716.269531 941.789062 L 1716.269531 1086.949219 L 1687.289062 1086.949219 L 1687.289062 941.789062 L 1635.210938 941.789062 L 1635.210938 915.261719 L 1768.339844 915.261719 L 1768.339844 941.789062 L 1716.269531 941.789062 "/>
<path fill="none" stroke-width="90" stroke-linecap="butt" stroke-linejoin="miter" stroke="rgb(100%, 100%, 100%)" stroke-opacity="1" stroke-miterlimit="10" d="M 17162.695312 10582.109375 L 17162.695312 9130.507812 L 16872.890625 9130.507812 L 16872.890625 10582.109375 L 16352.109375 10582.109375 L 16352.109375 10847.382812 L 17683.398438 10847.382812 L 17683.398438 10582.109375 Z M 17162.695312 10582.109375 " transform="matrix(0.1, 0, 0, -0.1, 0, 2000)"/>
<path fill-rule="nonzero" fill="rgb(100%, 100%, 100%)" fill-opacity="1" d="M 1920.378906 915.261719 L 1920.378906 942.519531 L 1828.761719 942.519531 L 1828.761719 987.960938 L 1911.039062 987.960938 L 1911.039062 1013.75 L 1828.761719 1013.75 L 1828.761719 1059.691406 L 1923.328125 1059.691406 L 1923.328125 1086.949219 L 1799.78125 1086.949219 L 1799.78125 915.261719 L 1920.378906 915.261719 "/>
<path fill="none" stroke-width="90" stroke-linecap="butt" stroke-linejoin="miter" stroke="rgb(100%, 100%, 100%)" stroke-opacity="1" stroke-miterlimit="10" d="M 19203.789062 10847.382812 L 19203.789062 10574.804688 L 18287.617188 10574.804688 L 18287.617188 10120.390625 L 19110.390625 10120.390625 L 19110.390625 9862.5 L 18287.617188 9862.5 L 18287.617188 9403.085938 L 19233.28125 9403.085938 L 19233.28125 9130.507812 L 17997.8125 9130.507812 L 17997.8125 10847.382812 Z M 19203.789062 10847.382812 " transform="matrix(0.1, 0, 0, -0.1, 0, 2000)"/>
<path fill-rule="nonzero" fill="rgb(100%, 100%, 100%)" fill-opacity="1" d="M 2058.910156 995.328125 C 2064.800781 990.261719 2067.75 982.109375 2067.75 970.890625 C 2067.75 959.679688 2064.71875 951.980469 2058.660156 947.808594 C 2052.601562 943.628906 2041.789062 941.539062 2026.238281 941.539062 L 1989.398438 941.539062 L 1989.398438 1002.949219 L 2025.5 1002.949219 C 2041.878906 1002.949219 2053.011719 1000.410156 2058.910156 995.328125 Z M 2097.46875 971.019531 C 2097.46875 999.351562 2085.109375 1017.191406 2060.378906 1024.558594 L 2105.328125 1086.949219 L 2068.488281 1086.949219 L 2027.46875 1029.230469 L 1989.398438 1029.230469 L 1989.398438 1086.949219 L 1960.410156 1086.949219 L 1960.410156 915.261719 L 2024.28125 915.261719 C 2050.46875 915.261719 2069.21875 919.679688 2080.519531 928.519531 C 2091.820312 937.371094 2097.46875 951.53125 2097.46875 971.019531 "/>
<path fill="none" stroke-width="90" stroke-linecap="butt" stroke-linejoin="miter" stroke="rgb(100%, 100%, 100%)" stroke-opacity="1" stroke-miterlimit="10" d="M 20589.101562 10046.71875 C 20648.007812 10097.382812 20677.5 10178.90625 20677.5 10291.09375 C 20677.5 10403.203125 20647.1875 10480.195312 20586.601562 10521.914062 C 20526.015625 10563.710938 20417.890625 10584.609375 20262.382812 10584.609375 L 19893.984375 10584.609375 L 19893.984375 9970.507812 L 20255 9970.507812 C 20418.789062 9970.507812 20530.117188 9995.898438 20589.101562 10046.71875 Z M 20974.6875 10289.804688 C 20974.6875 10006.484375 20851.09375 9828.085938 20603.789062 9754.414062 L 21053.28125 9130.507812 L 20684.882812 9130.507812 L 20274.6875 9707.695312 L 19893.984375 9707.695312 L 19893.984375 9130.507812 L 19604.101562 9130.507812 L 19604.101562 10847.382812 L 20242.8125 10847.382812 C 20504.6875 10847.382812 20692.1875 10803.203125 20805.195312 10714.804688 C 20918.203125 10626.289062 20974.6875 10484.6875 20974.6875 10289.804688 Z M 20974.6875 10289.804688 " transform="matrix(0.1, 0, 0, -0.1, 0, 2000)"/>
</svg>
